<?xml version="1.0" standalone="no"?>
<!DOCTYPE svg PUBLIC "-//W3C//DTD SVG 20010904//EN"
 "http://www.w3.org/TR/2001/REC-SVG-20010904/DTD/svg10.dtd">
<svg version="1.0" xmlns="http://www.w3.org/2000/svg"
 width="700.000000pt" height="700.000000pt" viewBox="0 0 700.000000 700.000000"
 preserveAspectRatio="xMidYMid meet">
<metadata>
Created by potrace 1.14, written by Peter Selinger 2001-2017
</metadata>
<g transform="translate(0.000000,700.000000) scale(0.100000,-0.100000)"
fill="#000000" stroke="none">
<path d="M655 5610 c6 -15 464 -814 494 -860 8 -14 21 -34 26 -45 12 -20 153
-266 465 -805 97 -168 188 -325 202 -350 14 -25 38 -66 53 -92 25 -45 25 -48
8 -54 -10 -4 -43 -17 -73 -30 -452 -191 -999 -407 -1135 -449 -312 -94 -380
-121 -424 -168 -18 -20 -22 -32 -17 -53 7 -26 7 -26 74 -20 109 11 158 19 268
40 12 2 37 7 55 10 30 5 374 82 454 101 17 5 28 5 25 3 -3 -3 -84 -29 -180
-58 -193 -58 -351 -107 -480 -150 -47 -16 -96 -31 -110 -34 -14 -3 -36 -7 -50
-10 -14 -3 -41 -9 -60 -12 -19 -4 -41 -10 -49 -14 -19 -10 -44 -94 -31 -98 6
-2 17 -10 24 -18 20 -19 46 -18 160 11 55 14 101 23 103 21 2 -2 -15 -16 -39
-31 -40 -26 -41 -28 -22 -42 15 -12 42 -14 134 -9 128 7 203 13 240 21 14 2
45 7 70 10 228 30 772 176 1205 325 66 22 125 42 130 43 6 2 27 9 48 16 21 7
40 11 41 9 1 -1 12 -19 24 -39 l22 -37 -52 -20 c-197 -77 -289 -112 -333 -127
-63 -21 -268 -74 -315 -81 -19 -3 -55 -10 -80 -16 -25 -5 -54 -11 -65 -14 -11
-2 -90 -19 -175 -38 -85 -19 -167 -37 -182 -40 -16 -3 -38 -8 -50 -11 -13 -3
-32 -7 -43 -9 -260 -57 -350 -78 -364 -86 -15 -10 75 -7 139 4 14 3 72 12 130
21 58 8 150 24 205 35 55 11 109 22 120 24 11 2 47 11 80 20 33 8 74 17 90 20
17 3 66 15 110 27 44 11 89 23 100 25 11 2 31 8 45 13 14 5 52 17 85 26 61 17
161 50 390 128 154 53 195 63 195 47 0 -6 10 -24 22 -40 12 -16 20 -32 17 -34
-2 -3 -69 -21 -149 -41 -189 -47 -322 -84 -560 -157 -313 -96 -863 -290 -926
-327 -30 -17 -375 -181 -383 -181 -3 0 -15 -7 -25 -15 -18 -14 -18 -16 -2 -34
17 -19 58 -21 126 -6 14 3 41 8 60 11 19 4 44 8 55 11 11 2 35 6 54 9 18 3 41
7 50 9 39 9 319 66 346 71 128 24 189 33 192 31 1 -2 -50 -18 -115 -36 -231
-65 -450 -131 -494 -151 -24 -10 -86 -31 -138 -46 -52 -14 -99 -30 -103 -34
-5 -4 -3 -26 4 -48 10 -36 17 -42 56 -53 47 -13 47 -13 202 30 l74 20 -34 -29
c-28 -25 -32 -31 -19 -40 12 -8 55 -13 100 -12 36 0 237 14 253 18 12 2 51 6
87 10 36 3 74 8 85 10 10 2 37 6 60 10 22 3 103 16 180 30 77 13 155 27 174
30 18 3 43 8 55 10 11 3 35 8 51 11 17 2 104 21 195 40 91 19 176 37 190 39
14 3 44 9 68 15 97 21 165 27 382 33 l185 5 -155 -39 c-85 -22 -164 -42 -175
-44 -28 -6 -121 -28 -320 -76 -214 -53 -214 -53 -370 -65 -38 -3 -177 -23
-220 -31 -11 -2 -38 -6 -60 -9 -22 -3 -96 -15 -165 -26 -69 -11 -136 -22 -150
-24 -86 -12 -117 -18 -130 -26 -14 -9 137 -4 188 6 12 2 48 6 81 10 33 3 68 7
78 9 10 2 43 7 73 11 30 4 62 8 70 10 14 2 76 11 150 21 19 3 60 9 90 14 103
17 115 19 155 25 22 4 69 11 105 16 36 5 97 18 135 29 39 10 117 26 175 34
174 25 256 33 420 42 69 3 137 7 152 9 15 1 33 -4 39 -12 10 -12 124 -204 191
-323 103 -182 162 -280 167 -280 6 0 42 58 99 160 75 135 288 498 299 511 8 9
38 20 66 24 29 4 59 8 67 10 129 27 172 31 370 40 80 3 180 8 223 10 283 14
419 19 464 17 56 -3 85 10 203 84 68 43 103 52 233 64 269 25 431 80 499 170
99 133 188 259 188 269 0 14 -63 25 -110 18 -21 -3 -79 -26 -130 -51 -51 -25
-94 -46 -96 -46 -2 0 -9 21 -15 46 -7 25 -18 48 -25 51 -8 3 -31 -5 -51 -18
-34 -20 -362 -112 -372 -103 -2 1 19 14 45 27 27 13 110 55 185 95 204 108
287 137 419 147 209 17 249 37 317 162 45 83 25 86 -150 19 -37 -14 -74 -26
-82 -26 -7 0 -38 36 -69 80 l-54 79 63 0 c35 -1 68 2 72 4 5 3 29 8 53 12 67
9 72 12 112 63 21 26 51 61 67 79 16 18 32 49 36 70 3 21 18 56 33 77 22 32
39 44 88 59 l61 20 14 63 c18 75 15 77 -67 39 -30 -14 -80 -37 -111 -51 -32
-15 -105 -49 -163 -76 -219 -104 -323 -148 -348 -148 -13 0 -51 38 -52 52 0 3
14 10 31 13 21 5 66 40 133 105 55 54 136 131 180 172 71 68 77 77 67 96 -43
81 -175 57 -510 -93 -206 -92 -322 -132 -409 -141 -62 -6 -236 -50 -427 -108
-184 -55 -221 -66 -229 -66 -5 0 28 76 39 88 3 4 402 107 452 118 12 2 34 9
48 14 14 5 25 8 25 5 0 -2 17 2 38 9 20 7 46 12 56 10 29 -4 78 19 142 68 145
111 187 135 278 163 231 69 384 128 482 187 94 54 108 67 170 150 37 49 72 95
78 102 46 49 136 178 130 187 -11 19 -97 7 -154 -22 -30 -15 -91 -50 -135 -78
-43 -28 -83 -51 -87 -51 -8 0 -10 9 -11 48 0 12 -6 22 -13 22 -12 0 -371 -153
-482 -205 -82 -39 -74 -30 23 28 50 30 158 99 240 154 232 155 402 238 530
259 20 3 51 14 69 23 106 60 195 118 224 145 37 35 88 114 78 123 -8 8 -85
-22 -199 -79 -61 -30 -103 -46 -111 -41 -8 4 -34 38 -59 75 l-45 67 47 6 c25
4 94 22 152 41 l106 35 96 98 c101 102 130 150 142 234 12 82 -29 99 -120 49
-27 -16 -75 -42 -105 -59 -202 -113 -354 -194 -375 -199 -18 -4 -32 -1 -45 11
-28 25 -26 30 23 49 23 9 63 35 88 59 25 23 74 67 109 97 36 30 83 71 105 91
22 20 90 78 151 130 103 89 110 97 102 121 -14 41 -63 41 -179 1 -92 -31 -289
-125 -409 -194 -59 -34 -102 -58 -245 -135 -140 -76 -265 -131 -377 -164 -27
-8 -27 -8 -11 17 17 26 37 59 78 133 14 25 30 52 35 60 6 8 42 71 82 140 39
69 82 143 94 165 13 22 24 42 24 45 0 3 -1166 6 -2590 6 -2334 0 -2590 -2
-2585 -16z m4974 -964 c-3 -3 -40 -20 -84 -39 -82 -35 -118 -51 -289 -131 -54
-25 -100 -46 -101 -46 -12 0 11 40 28 48 27 14 306 122 314 122 3 0 19 6 36
14 72 30 82 35 91 35 5 1 7 -1 5 -3z m-222 -652 c-11 -11 -671 -294 -675 -290
-2 3 8 24 22 49 21 35 37 48 74 62 26 10 61 23 77 30 65 28 321 124 345 129
14 3 50 8 79 11 30 3 57 8 60 10 2 3 9 5 14 5 6 0 7 -3 4 -6z m-1001 -889
c-26 -19 -42 -19 -26 0 7 8 20 15 29 15 13 -1 13 -3 -3 -15z m739 -81 c-99
-31 -193 -60 -210 -64 -16 -5 -66 -20 -110 -34 -245 -77 -381 -116 -470 -135
-55 -12 -117 -26 -137 -30 -21 -5 -38 -7 -38 -5 0 17 54 84 68 84 57 2 259 45
417 89 61 17 148 40 195 51 241 57 427 98 445 98 11 1 -61 -24 -160 -54z m-5
-628 c0 -2 -7 -7 -16 -10 -8 -3 -12 -2 -9 4 6 10 25 14 25 6z m-1023 -17 c-31
-18 -187 -68 -187 -60 0 9 29 49 30 40 0 -3 30 2 68 12 37 9 76 17 87 18 19 0
19 0 2 -10z m899 -2 c29 0 53 -2 51 -3 -1 -1 -150 -39 -332 -84 -312 -77 -337
-82 -455 -85 -113 -2 -195 -10 -227 -20 -7 -2 -15 0 -17 4 -16 24 159 70 444
117 14 2 34 6 46 9 12 3 36 7 55 10 19 3 102 18 184 34 83 16 160 26 173 24
13 -3 48 -6 78 -6z m-2327 -302 c-2 -2 -17 -5 -34 -8 -16 -3 -68 -12 -115 -21
-47 -8 -110 -18 -140 -21 -30 -4 -58 -9 -62 -11 -4 -3 -8 -1 -8 4 0 12 133 54
250 80 84 19 85 19 99 0 7 -11 11 -21 10 -23z"/>
</g>
</svg>
