<?xml version="1.0" encoding="UTF-8"?>
<!DOCTYPE svg PUBLIC "-//W3C//DTD SVG 1.1//EN" "http://www.w3.org/Graphics/SVG/1.1/DTD/svg11.dtd">
<!-- Creator: CorelDRAW 2018 (64-Bit) -->
<svg xmlns="http://www.w3.org/2000/svg" xml:space="preserve" width="6.66666in" height="6.66666in" version="1.1" style="shape-rendering:geometricPrecision; text-rendering:geometricPrecision; image-rendering:optimizeQuality; fill-rule:evenodd; clip-rule:evenodd"
viewBox="0 0 6666.66 6666.66"
 xmlns:xlink="http://www.w3.org/1999/xlink">
 <defs>
  <style type="text/css">
   <![CDATA[
    .str0 {stroke:black;stroke-width:3.64;stroke-miterlimit:22.9256}
    .fil2 {fill:#FEFEFE}
    .fil3 {fill:#2B2A29}
    .fil4 {fill:#2B2A29}
    .fil0 {fill:#00A0E3;fill-rule:nonzero}
    .fil1 {fill:#F7A30A;fill-rule:nonzero}
   ]]>
  </style>
 </defs>
 <g id="Layer_x0020_1">
  <metadata id="CorelCorpID_0Corel-Layer"/>
  <g id="ВТН_x0020_Кирилиця">
   <g>
    <path class="fil0" d="M4750.31 3364.19l147.99 2.78 29.36 -10.67c60.71,-34.55 112.01,-79.39 164.79,-121.11l69.17 -46.71c81.24,-40.16 147.44,-57.26 233.7,-76.32l247.32 -89.05 140.71 -86.52c12.43,-6.52 24.73,-12.74 37.39,-18.89l282.41 -366.34c-45.97,-12.35 -52.32,-9.38 -108.8,-2.5l-24.74 8.39c-80.8,37.82 -150.65,89.86 -225.32,135.56l-16.23 2.37c-13.01,-22.14 -3.88,-51.28 -16.18,-73.31l-125.3 55.35 -1157.35 500.73 -112.61 12.28 -133.8 43.17c-32.21,11.98 -83.21,36.35 -114.45,33.49l72.75 -59.51 858.7 -328.94 98.96 -8.53 78.99 -20.06c302.27,-154.24 523.5,-399.49 873.85,-456.01l210.72 -127.51c46.15,-44.8 97.67,-98.68 100.75,-149.65l-115.93 45.03 -174.77 86.7c-26.44,-7.51 -29.3,-19.33 -37.98,-39.67l-48.66 -71.05 -24.27 -30.58c31.17,-11.08 68.07,-9.35 100,-14.37l193.78 -67.47 185.28 -188.37c16.5,-27.89 115.58,-261.93 -49.84,-185.46 -154.5,85.93 -307.22,174.75 -465.55,255.18l-39.12 12.92 -30.18 -33.36c-4.9,-3.38 -15.61,-6.27 -17.72,-11.1l15.15 -6.8c23,-8.94 45.33,-18.39 68,-28.25l504.72 -438.15 -18.34 -45.56 -66.37 -9.38c-356.29,96.47 -648.13,345.13 -991.45,473.66l-119.44 38.25c-246.92,98.2 -474.31,229.62 -721.83,326.5l-119.44 37.2 -83.88 25.17c-191.67,72.71 -358.52,181.66 -542.54,268.7l-24.2 9.97c-109.05,42.9 -218.36,84.94 -326.95,129.17l-94.27 40 -58.02 27.24c-11.74,6.11 -23.69,12.44 -32.3,21.33l-1.33 3.82 3.34 5.54 6.98 3.13c32.25,3.7 73.83,-12.33 106.94,-23.68l1127.78 -466.01 79.9 -7.98 -17.19 20.02c-363.12,205.55 -771.97,371.45 -1151.14,553.76l-143.11 74.02 -6.91 4.8 -29.15 18.28 -13.65 4.69 -13.22 2.28c-19.01,0.94 -34.6,-1.72 -51.69,-4.83l-124.02 27.91c-748.64,264.92 -1480.35,597.17 -2222.31,885.04l-309.33 94.31c-89.55,28.98 -186.77,56.29 -234.9,127.99l11.74 43.68 44.11 2.66c295.4,-30.66 595.18,-107.88 891.85,-178.95l-673.24 205.96 -89.55 33.15 -137.87 34.18c-38.3,5.79 -67.77,6.89 -103.14,26.98l-24.67 83.08 40.81 26.64c33.83,22.05 109.5,-9.81 160.28,-21.19l102.18 -21.17c-18.18,13.56 -32.6,19.45 -54.64,30.57l-42.75 33.14c14.41,30.02 99.14,24.14 140.03,23.15l179.04 -14.25 194.05 -29.03c433.17,-85.78 848.83,-217.3 1273.2,-364.54l55.05 -16.19c107.53,-26.96 214.99,-50.61 322.71,-73.09l190.35 -37.04 -868.22 337.38 -160.89 46.72c-82.96,19.77 -161.69,36.46 -244.7,51.9l-798.96 175.32 -35.65 16.18 41.45 3.45c385.03,-45.22 822.22,-143.37 1205.06,-268.92l173.05 -65.08c376.34,-125.46 750.94,-198.84 1130.65,-293.59l202.68 -56.46 78.04 -23.38 76.54 -23.79 75.14 -24.27c61.08,-20.37 121.85,-41.24 182.59,-62.76l190.63 -74.15 889.46 -225.17c-30.41,-3.96 -68.41,-3.06 -100.06,-4.19zm-951.77 -158.57l384.73 -160.38 23.35 -6.41c-56.41,44.83 -144.4,83.51 -210.58,117.63l-374.18 182.22 -23.9 10.34 -44.35 -4.11c-4.62,-4.46 -7.77,-8.96 -11.74,-12.9l-385.88 158.52c-50.23,8.59 -94.3,16.69 -144.17,33.52l-45.17 20.44 -70.02 31.35c-204.81,79.31 -423.78,156.47 -634.33,212.37l204.72 -96.54 10.55 -6.32 2214.69 -959.05 -414.43 205.64c-148.59,76.37 -359.3,168.08 -479.28,273.66zm-49.86 -340.71l42.96 -16.44c127.04,-45.56 255.4,-86.68 382.61,-131.85l99.83 -37.47c178.03,-70.83 348.9,-154.33 525.57,-227.8l697.7 -267.52 -11.66 4.85 -67.51 28.28c-325.59,142.87 -647.52,293.63 -966.89,447.28l-90.18 42.2 -91.19 40.89 -91.49 38.44 -90.31 36.53 -87.95 34.36 -84.24 30.9 -79.7 27.95 -73.54 24.69 -54.48 14.13c-18.02,2.9 -21.11,1.52 -31.96,-4.91l2.72 -14.64c12.69,-24.14 45.19,-50.41 69.72,-69.88z"/>
    <path class="fil1" d="M4476.68 4819.26l152.72 31.67c62.85,-16.81 113.6,-58.07 161.14,-88.71l62.09 -31.93c76.84,-24.16 133.65,-26.85 215.02,-28.67l226.24 -39.53 135.44 -62.09 22.69 -7.56 221.69 -306.07c-42.18,-19.67 -45.42,-18.48 -100.43,-22.36l-21.77 3.63c-71.47,22.5 -129.33,60 -193.35,90.29l-14.85 -0.74c-9.98,-16.81 -8.89,-33.96 -14.78,-51.63l-7.74 -23.12c-6.71,-11.77 -10.13,-12.11 -26.28,-16.58l-84.34 46.69 -1045.72 257.96 -104.52 -11.36 -122.24 14.37c-30.22,5.13 -77.26,17.52 -104.59,8.78l64.02 -42.96 782.33 -145.5 91.94 11.52 72.37 -3.89c265.24,-89.19 444.94,-287.94 762.04,-278.1l88.69 -21.12c66.07,-15.72 103.35,-73.63 125.07,-115.69l23.61 -45.68c6.27,-20.07 4.3,-23.33 -10.94,-37.26l-84.61 29.54 -143.21 52.38c-25.3,-12.37 -30.04,-26.15 -39.79,-45.63l-53.67 -78.16 -26 -34.3c26.21,-4.96 60.02,3.7 86.83,4.71l160.43 -29.91 126.33 -148.86c19.38,-58.78 20.99,-104.48 79.24,-156.17l105.93 -33.65 29.26 -121.32 -12.92 -4.69 -281.34 127.95c-115.58,56.18 -230.95,112.79 -355.31,160.2l-32.41 5.08 -31.4 -38.16c-5.06,-4.48 -14.55,-8.97 -17.17,-14.21l12.3 -3.65c18.89,-4.35 36.76,-9.19 55.19,-14.44l344.25 -328.33 -25.26 -47.15 -56.02 -21.43c-279.82,26.48 -494.4,212.4 -768.34,266.19l-102.07 13.31c-216.37,47.22 -409.53,128.48 -628.13,171.78l-107.97 11.68 -76.15 7.28c-175.91,31.98 -323.15,103.55 -490.74,150.61l-493.74 108.43 -17.88 13.06 53.19 13.93c212.53,-28.59 414.31,-90.17 618.89,-140.67l558.44 -83.63 -28.48 22.19c-381.56,134.54 -818.5,205.71 -1188.4,350.99l-36.3 14.41 -13.7 1.01c-23.13,-1.29 -40.53,-7.36 -60.16,-14.05l-124.85 5.79c-693.93,122.8 -1375.17,332.05 -2001.62,573.57l-469.88 224.22 39.13 37.51 49.63 -1.81c275.43,-45.72 545.45,-110.25 821.07,-156.08l-575.7 168.2 -74.06 33.03 -124.22 39.19c-38.09,8.5 -67.61,12.05 -92.98,33.7l28.21 74.91 60.22 18.78c43.01,13.42 104.54,-17.2 150.31,-30.39l89.88 -22.85c-10.21,12.53 -20.36,17.81 -36.59,28.99l-22.59 31.1c30.04,23.72 104.87,18.06 151.05,16.23l163.2 -12.07 166.96 -19.26c346.89,-50.02 684.02,-121.39 1023.65,-193.98l45.51 -6.46c91.88,-8.11 183.25,-12.35 275.11,-14.85l166.17 -1.43 -821.27 197.55c-67.38,7.68 -130.48,13.24 -198.13,17.52l-643.33 102.13 -24.07 13.89 40.35 3.77c171.85,-15.45 342.87,-41.76 513.48,-65.47l451.8 -68.85 132.79 -35.01c319.09,-62.73 632.65,-60.8 955.98,-79.67l95.12 -7.79 93.9 -9.17 93.07 -10.53 92.64 -12.02 92.64 -13.52 93.05 -15.03 93.85 -16.62 95.05 -18.25 815.07 -35.04c-28.07,-9.84 -64.46,-16.99 -94.29,-24.61zm-664.67 -817.09l34.25 -6.94c101.94,-17.89 204.83,-31.47 306.89,-48.92l79.49 -15.52 73.33 -16.5c98.91,-24.73 195.21,-53.37 293.04,-80.5l47.88 -11.86 537.3 -117 -9.06 2.44 -50.62 13.49c-250.76,72.25 -499.83,148.78 -747.37,226.74l-71.02 21.56 -72.41 19.65 -72.8 18.15c-90.54,20.8 -180.72,38.72 -273.22,54.02l-58.83 8.41 -66.13 -1.66 -5.1 -10.5c8.53,-21.84 30.04,-38.66 54.37,-55.05zm-1064.78 292.14l7.91 4.37c48.29,-2.66 96.4,-13.98 142.96,-24.16l125.51 -29.86 198.3 -37.47c-11.42,42.52 -110.02,85.05 -168.63,102.63l-155.8 46.78c-55.14,9.86 -71.93,6.23 -120.34,-3.42l-7.58 -5.77c-8.44,-10.6 -13.27,-21.49 -16.96,-33.4l-5.38 -19.7zm-396.25 396.31l390.15 -78.17c139.83,-24.97 344.81,-73.63 484.02,-58.27l-121.63 54.5 -273.43 21.22 -40.87 11.67 -62.69 17.67c-176.95,38.46 -371.3,75.12 -553.63,94l169.46 -58.34 8.62 -4.28zm962.02 -164.88l530.19 -119.88 83.12 -16.46 21.42 -1.22c-53.01,32.05 -139.9,54.94 -203.87,75.79l-343.77 100.44 -46.25 -11.82c-9.29,-9.72 -13.42,-19.22 -28.2,-26.11l-12.64 -0.74z"/>
    <polygon class="fil2 str0" points="710.68,1360.88 3085.12,5473.42 5459.47,1360.9 "/>
    <path class="fil3" d="M612.39 1308.33l2472.75 4282.82 2472.67 -4282.82 -4945.42 0zm355.51 199.99l2117.35 3667.37 2117.42 -3667.37 -4234.76 0z"/>
   </g>
   <g id="ВТН_x0020_на_x0020_мазках_x0020_без_x0020_трикутника">
    <polygon class="fil4" points="3091.32,4772.05 2452.46,3665.52 2675.81,3665.52 3091.32,4385.19 3506.52,3665.52 3730.33,3665.52 "/>
    <polygon class="fil4" points="2991.32,3217.3 2991.32,1875.25 2197.28,1875.25 2197.28,1675.22 3985.37,1675.22 3985.37,1875.25 3191.33,1875.25 3191.33,3217.3 "/>
    <path class="fil4" d="M2560.57 2055.51c258.57,2.17 288.02,467.19 141.31,567.2 0,0 13.76,2.43 13.76,2.43 196.6,41.2 196.85,593.44 -124.33,593.44 19.61,1.29 -134.74,0.42 -194.01,0 -59.29,-0.42 0,0 -200.01,0l0 -1163.07 363.29 0zm-163.28 963.06l131.89 0c149.65,0 149.65,-281.52 0.01,-281.52l-131.9 0 0 281.52zm0 -481.54l103.63 0c139.72,0 139.72,-281.52 0,-281.52l-103.63 0 0 281.52z"/>
    <polygon class="fil4" points="3591.36,3241.43 3391.35,3241.44 3391.35,2078.36 3591.36,2078.36 3591.36,2559.9 3785.36,2559.9 3785.36,2078.36 3985.37,2078.36 3985.37,3241.44 3785.36,3241.44 3785.36,2759.91 3591.36,2759.91 "/>
   </g>
  </g>
 </g>
</svg>
