<?xml version="1.0" encoding="UTF-8"?>
<!DOCTYPE svg PUBLIC "-//W3C//DTD SVG 1.1//EN" "http://www.w3.org/Graphics/SVG/1.1/DTD/svg11.dtd">
<!-- Creator: CorelDRAW 2018 (64-Bit) -->
<svg xmlns="http://www.w3.org/2000/svg" xml:space="preserve" width="6.66666in" height="6.66666in" version="1.1" style="shape-rendering:geometricPrecision; text-rendering:geometricPrecision; image-rendering:optimizeQuality; fill-rule:evenodd; clip-rule:evenodd"
viewBox="0 0 6666.66 6666.66"
 xmlns:xlink="http://www.w3.org/1999/xlink">
 <defs>
  <style type="text/css">
   <![CDATA[
    .str0 {stroke:black;stroke-width:3.63;stroke-miterlimit:22.9256}
    .fil2 {fill:#FEFEFE}
    .fil3 {fill:#2B2A29}
    .fil0 {fill:#00A0E3;fill-rule:nonzero}
    .fil1 {fill:#F7A30A;fill-rule:nonzero}
   ]]>
  </style>
 </defs>
 <g id="Layer_x0020_1">
  <metadata id="CorelCorpID_0Corel-Layer"/>
  <g id="VTN_x0020_ENG">
   <path class="fil0" d="M4766.12 3327.3l147.5 2.77 29.26 -10.64c60.51,-34.43 111.63,-79.12 164.24,-120.7l68.94 -46.56c80.97,-40.03 146.95,-57.07 232.91,-76.07l246.5 -88.75 140.24 -86.23c12.39,-6.49 24.65,-12.7 37.26,-18.82l281.46 -365.11c-45.81,-12.31 -52.15,-9.35 -108.44,-2.49l-24.66 8.36c-80.53,37.7 -150.14,89.56 -224.57,135.11l-16.18 2.37c-12.97,-22.07 -3.86,-51.11 -16.13,-73.07l-124.88 55.16 -1153.48 499.06 -112.23 12.24 -133.35 43.03c-32.11,11.94 -82.93,36.23 -114.07,33.37l72.5 -59.31 855.83 -327.83 98.63 -8.5 78.73 -19.99c301.25,-153.72 521.74,-398.15 870.93,-454.48l210.01 -127.08c45.99,-44.65 97.34,-98.35 100.41,-149.15l-115.55 44.88 -174.19 86.41c-26.36,-7.48 -29.2,-19.26 -37.86,-39.54l-48.5 -70.81 -24.19 -30.48c31.07,-11.04 67.85,-9.31 99.67,-14.32l193.13 -67.25 184.66 -187.73c16.44,-27.8 115.2,-261.05 -49.67,-184.84 -153.99,85.65 -306.19,174.17 -463.99,254.33l-38.99 12.88 -30.08 -33.25c-4.89,-3.37 -15.56,-6.24 -17.66,-11.06l15.1 -6.78c22.91,-8.91 45.18,-18.33 67.78,-28.15l503.03 -436.68 -18.28 -45.41 -66.15 -9.35c-355.09,96.14 -645.95,343.98 -988.13,472.07l-119.04 38.12c-246.09,97.87 -472.72,228.85 -719.41,325.4l-119.04 37.08 -83.6 25.09c-191.04,72.47 -357.31,181.05 -540.73,267.81l-24.11 9.93c-108.69,42.76 -217.63,84.66 -325.86,128.74l-93.95 39.87 -57.83 27.15c-11.7,6.09 -23.6,12.4 -32.19,21.26l-1.32 3.81 3.33 5.52 6.95 3.12c32.14,3.69 73.58,-12.3 106.59,-23.6l1124 -464.45 79.63 -7.96 -17.13 19.95c-361.9,204.86 -769.39,370.21 -1147.29,551.91l-142.63 73.78 -6.88 4.78 -29.06 18.22 -13.6 4.67 -13.18 2.28c-18.94,0.94 -34.49,-1.71 -51.51,-4.81l-123.61 27.82c-746.14,264.03 -1475.39,595.17 -2214.87,882.07l-308.29 93.99c-89.24,28.88 -186.15,56.1 -234.11,127.56l11.7 43.54 43.96 2.65c294.41,-30.56 593.19,-107.52 888.87,-178.35l-670.98 205.27 -89.25 33.04 -137.4 34.06c-38.18,5.77 -67.55,6.86 -102.8,26.89l-24.59 82.81 40.68 26.55c33.71,21.98 109.13,-9.77 159.74,-21.11l101.84 -21.1c-18.12,13.51 -32.5,19.39 -54.46,30.46l-42.6 33.02c14.36,29.92 98.81,24.06 139.56,23.07l178.44 -14.2 193.39 -28.93c431.72,-85.48 845.98,-216.57 1268.94,-363.31l54.86 -16.14c107.17,-26.87 214.26,-50.43 321.63,-72.84l189.71 -36.92 -865.31 336.25 -160.35 46.57c-82.69,19.7 -161.15,36.34 -243.89,51.72l-796.29 174.73 -35.53 16.13 41.31 3.44c383.74,-45.07 819.46,-142.89 1201.02,-268.02l172.47 -64.86c375.08,-125.04 748.43,-198.18 1126.86,-292.61l202.01 -56.27 77.78 -23.31 76.28 -23.71 74.89 -24.19c60.88,-20.3 121.44,-41.1 181.98,-62.56l189.99 -73.9 886.49 -224.41c-30.31,-3.95 -68.18,-3.05 -99.72,-4.18zm-948.58 -158.04l383.44 -159.85 23.27 -6.39c-56.22,44.69 -143.91,83.23 -209.87,117.24l-372.93 181.61 -23.81 10.3 -44.2 -4.09c-4.61,-4.44 -7.74,-8.93 -11.7,-12.86l-384.59 157.99c-50.07,8.56 -93.99,16.64 -143.69,33.41l-45.02 20.37 -69.79 31.24c-204.12,79.05 -422.35,155.94 -632.21,211.65l204.04 -96.21 10.52 -6.3 2207.27 -955.83 -413.04 204.95c-148.09,76.12 -358.09,167.52 -477.68,272.74zm-49.69 -339.57l42.81 -16.39c126.61,-45.41 254.54,-86.39 381.32,-131.41l99.5 -37.35c177.43,-70.6 347.73,-153.81 523.81,-227.04l695.37 -266.62 -11.63 4.83 -67.28 28.19c-324.5,142.4 -645.35,292.64 -963.65,445.78l-89.88 42.06 -90.88 40.75 -91.19 38.31 -90 36.41 -87.66 34.24 -83.95 30.8 -79.44 27.85 -73.3 24.61 -54.3 14.07c-17.96,2.89 -21.05,1.52 -31.86,-4.89l2.72 -14.59c12.65,-24.06 45.04,-50.24 69.49,-69.65z"/>
   <path class="fil1" d="M4493.41 4777.5l152.2 31.56c62.64,-16.76 113.22,-57.88 160.6,-88.41l61.88 -31.83c76.58,-24.08 133.2,-26.76 214.3,-28.58l225.48 -39.39 134.99 -61.89 22.62 -7.53 220.95 -305.04c-42.04,-19.6 -45.26,-18.42 -100.09,-22.28l-21.7 3.61c-71.23,22.42 -128.9,59.8 -192.71,89.98l-14.8 -0.74c-9.95,-16.76 -8.86,-33.85 -14.73,-51.46l-7.71 -23.04c-6.69,-11.73 -10.09,-12.07 -26.2,-16.53l-84.06 46.54 -1042.22 257.09 -104.17 -11.32 -121.83 14.32c-30.11,5.12 -77,17.46 -104.24,8.75l63.81 -42.81 779.7 -145.01 91.63 11.48 72.13 -3.88c264.35,-88.89 443.46,-286.98 759.49,-277.17l88.4 -21.04c65.85,-15.67 103,-73.39 124.65,-115.3l23.53 -45.53c6.24,-20 4.29,-23.25 -10.9,-37.13l-84.32 29.44 -142.73 52.2c-25.21,-12.33 -29.94,-26.06 -39.66,-45.48l-53.48 -77.9 -25.92 -34.19c26.13,-4.94 59.82,3.69 86.55,4.69l159.9 -29.81 125.9 -148.36c19.31,-58.59 20.92,-104.13 78.98,-155.65l105.58 -33.54 29.16 -120.91 -12.88 -4.68 -280.4 127.53c-115.2,55.99 -230.18,112.41 -354.12,159.67l-32.3 5.06 -31.29 -38.03c-5.05,-4.46 -14.5,-8.94 -17.11,-14.17l12.26 -3.63c18.82,-4.34 36.64,-9.16 55,-14.4l343.1 -327.24 -25.17 -47 -55.83 -21.36c-278.88,26.39 -492.74,211.69 -765.77,265.3l-101.74 13.27c-215.64,47.07 -408.15,128.06 -626.02,171.2l-107.61 11.64 -75.89 7.25c-175.31,31.87 -322.07,103.2 -489.09,150.1l-492.09 108.07 -17.81 13.02 53.01 13.89c211.81,-28.49 412.92,-89.86 616.81,-140.19l556.57 -83.35 -28.38 22.12c-380.28,134.09 -815.76,205.02 -1184.42,349.82l-36.18 14.36 -13.65 1.01c-23.06,-1.29 -40.4,-7.34 -59.96,-14.01l-124.44 5.77c-691.61,122.39 -1370.57,330.94 -1994.91,571.65l-468.31 223.48 39 37.38 49.46 -1.8c274.51,-45.56 543.62,-109.88 818.32,-155.56l-573.77 167.64 -73.81 32.92 -123.8 39.06c-37.96,8.47 -67.39,12.02 -92.67,33.59l28.12 74.65 60.01 18.72c42.87,13.37 104.19,-17.15 149.81,-30.29l89.58 -22.78c-10.18,12.49 -20.29,17.75 -36.46,28.9l-22.51 30.99c29.94,23.64 104.52,18 150.55,16.18l162.65 -12.03 166.41 -19.19c345.72,-49.85 681.73,-120.98 1020.22,-193.32l45.35 -6.44c91.57,-8.08 182.64,-12.31 274.19,-14.8l165.61 -1.43 -818.52 196.89c-67.16,7.65 -130.05,13.19 -197.47,17.46l-641.17 101.79 -23.99 13.85 40.22 3.76c171.28,-15.4 341.72,-41.61 511.76,-65.25l450.28 -68.62 132.34 -34.89c318.03,-62.52 630.54,-60.6 952.78,-79.4l94.8 -7.76 93.58 -9.14 92.76 -10.5 92.33 -11.98 92.33 -13.48 92.74 -14.98 93.53 -16.56 94.73 -18.19 812.34 -34.93c-27.98,-9.81 -64.25,-16.93 -93.97,-24.52zm-662.45 -814.35l34.13 -6.92c101.59,-17.83 204.14,-31.37 305.86,-48.76l79.22 -15.47 73.09 -16.44c98.57,-24.65 194.56,-53.19 292.06,-80.23l47.72 -11.82 535.5 -116.61 -9.03 2.44 -50.45 13.44c-249.92,72.01 -498.16,148.29 -744.87,225.98l-70.78 21.49 -72.17 19.58 -72.56 18.08c-90.23,20.73 -180.11,38.6 -272.3,53.84l-58.64 8.38 -65.91 -1.66 -5.08 -10.46c8.5,-21.77 29.94,-38.53 54.19,-54.86zm-1061.22 291.16l7.89 4.35c48.12,-2.65 96.07,-13.93 142.48,-24.08l125.09 -29.76 197.63 -37.35c-11.38,42.37 -109.66,84.76 -168.06,102.28l-155.28 46.62c-54.95,9.83 -71.69,6.21 -119.94,-3.4l-7.55 -5.75c-8.41,-10.57 -13.23,-21.42 -16.9,-33.29l-5.36 -19.63zm-394.93 394.98l388.84 -77.9c139.36,-24.89 343.66,-73.39 482.41,-58.07l-121.23 54.31 -272.52 21.15 -40.73 11.63 -62.48 17.61c-176.35,38.33 -370.05,74.87 -551.77,93.69l168.89 -58.15 8.59 -4.27zm958.8 -164.32l528.41 -119.48 82.84 -16.41 21.35 -1.22c-52.83,31.95 -139.43,54.76 -203.19,75.54l-342.62 100.11 -46.09 -11.78c-9.26,-9.69 -13.37,-19.16 -28.1,-26.02l-12.59 -0.74z"/>
   <polygon class="fil2 str0" points="740.02,1330.7 3106.51,5429.47 5472.91,1330.72 "/>
   <polygon class="fil3" points="3106.55,4617.95 2469.83,3515.12 2692.43,3515.12 3106.55,4232.38 3520.35,3515.12 3743.41,3515.12 "/>
   <path class="fil3" d="M642.07 1278.33l2464.47 4268.48 2464.38 -4268.48 -4928.85 0zm354.31 199.32l2110.25 3655.09 2110.33 -3655.09 -4220.58 0z"/>
   <polygon class="fil3" points="3201.62,1927.31 3201.62,3066.33 3011.78,3066.33 3011.78,1927.31 2062.61,1927.31 2062.61,1737.5 4103.33,1737.5 4103.33,1927.31 "/>
   <polygon class="fil3" points="2347.37,3066.33 2062.61,2117.17 2260.84,2117.17 2442.36,2722.25 2623.74,2117.17 2821.95,2117.17 2537.2,3066.33 "/>
   <polygon class="fil3" points="3562.3,2117.17 3381.96,2117.17 3381.96,3066.33 3562.3,3066.33 3562.32,2470.59 3922.99,3066.33 4103.33,3066.33 4103.33,2117.17 3922.99,2117.17 3922.99,2712.04 "/>
  </g>
 </g>
</svg>
